<?xml version="1.0" standalone="no"?>
<!DOCTYPE svg PUBLIC "-//W3C//DTD SVG 20010904//EN"
 "http://www.w3.org/TR/2001/REC-SVG-20010904/DTD/svg10.dtd">
<svg version="1.0" xmlns="http://www.w3.org/2000/svg"
 width="1600.000000pt" height="1600.000000pt" viewBox="0 0 1600.000000 1600.000000"
 preserveAspectRatio="xMidYMid meet">
<metadata>
Created by potrace 1.14, written by Peter Selinger 2001-2017
</metadata>
<g transform="translate(0.000000,1600.000000) scale(0.100000,-0.100000)"
fill="#000000" stroke="none">
<path d="M7760 15683 c-122 -153 -233 -291 -247 -308 -13 -16 -77 -96 -141
-176 l-117 -147 -205 -118 c-112 -66 -218 -126 -235 -135 -16 -9 -151 -87
-299 -173 -148 -86 -271 -156 -273 -156 -2 0 -16 -8 -31 -19 -15 -10 -159 -95
-320 -187 -161 -93 -300 -174 -310 -179 -9 -6 -39 -23 -67 -38 -27 -15 -66
-37 -85 -48 -19 -12 -183 -107 -365 -212 -181 -104 -346 -200 -366 -211 -20
-12 -117 -67 -215 -124 -99 -57 -186 -108 -194 -113 -51 -31 -883 -509 -887
-509 -2 0 -16 -8 -31 -19 -21 -15 -259 -153 -469 -273 -69 -39 -100 -56 -148
-85 -27 -16 -57 -32 -65 -36 -8 -4 -28 -16 -45 -26 -16 -11 -46 -28 -65 -39
-126 -70 -366 -212 -425 -252 -211 -143 -392 -356 -505 -593 -45 -95 -104
-257 -115 -316 -2 -14 -7 -39 -11 -54 -24 -112 -27 -245 -27 -1369 l0 -1138
-21 -18 c-12 -10 -193 -144 -403 -296 -211 -153 -383 -281 -383 -285 0 -5 28
-30 63 -57 34 -27 71 -56 82 -66 23 -19 225 -181 338 -271 43 -34 84 -67 90
-72 7 -6 59 -49 117 -95 58 -46 108 -88 111 -92 3 -5 6 -534 6 -1176 1 -1215
2 -1246 44 -1417 38 -153 113 -334 179 -431 16 -25 30 -47 30 -50 0 -7 85
-118 125 -163 59 -68 151 -154 225 -211 71 -54 551 -340 571 -340 5 0 9 -4 9
-10 0 -5 5 -10 10 -10 6 0 40 -18 76 -40 36 -22 67 -40 69 -40 3 0 323 -185
345 -200 8 -6 22 -13 30 -17 8 -4 64 -35 123 -70 60 -35 127 -74 150 -87 23
-13 173 -99 332 -191 160 -92 380 -220 490 -283 110 -64 297 -171 415 -240
118 -68 231 -133 250 -144 19 -11 123 -71 230 -133 107 -62 211 -122 230 -133
19 -10 193 -110 385 -222 193 -111 368 -212 390 -225 22 -12 123 -71 225 -130
102 -59 205 -119 230 -133 25 -14 104 -59 175 -101 72 -41 197 -113 279 -161
l150 -85 189 -235 c214 -267 193 -241 389 -485 l146 -184 71 97 c39 53 74 102
78 107 5 6 120 163 256 350 241 333 248 341 309 374 35 19 216 123 403 231
187 108 360 208 385 222 25 14 142 82 260 150 248 144 469 272 520 301 51 29
860 496 1035 597 83 48 242 140 355 205 113 65 219 126 235 136 17 11 37 22
45 26 8 4 49 27 90 51 41 25 93 55 115 67 22 12 110 62 195 112 85 49 263 152
395 228 132 77 278 161 325 188 47 27 159 92 250 145 91 52 181 104 200 115
19 11 44 25 55 31 79 44 197 119 258 165 67 51 206 183 253 242 91 113 168
238 217 354 39 92 49 116 53 130 1 6 13 48 27 95 14 47 28 110 32 139 4 30 9
63 12 75 3 12 7 545 8 1184 l2 1164 24 21 c13 12 193 157 399 322 206 165 377
302 380 305 3 3 22 19 43 34 20 16 37 32 37 36 0 4 -53 46 -117 93 -65 47
-122 90 -128 94 -5 5 -32 24 -60 43 -27 19 -55 40 -61 45 -7 6 -126 93 -265
194 l-254 184 0 1131 c0 1022 -3 1179 -19 1281 -19 122 -75 298 -130 412 -38
77 -118 212 -151 252 -118 145 -187 214 -295 297 -90 70 -119 87 -815 486 -77
44 -152 89 -167 99 -15 11 -29 19 -32 19 -4 0 -175 98 -281 161 -16 10 -41 24
-55 32 -22 12 -361 207 -1455 839 -176 102 -365 211 -420 243 -202 117 -483
279 -610 352 -71 41 -137 78 -145 83 -46 28 -474 275 -540 312 -58 33 -573
330 -626 361 -28 17 -69 64 -137 158 -303 420 -549 754 -556 757 -5 2 -109
-122 -231 -275z m340 -847 c120 -14 259 -56 371 -112 37 -18 163 -89 280 -157
118 -68 241 -139 274 -157 33 -18 67 -39 76 -46 8 -8 18 -14 22 -14 4 0 44
-22 89 -49 88 -51 445 -258 515 -297 56 -32 264 -152 283 -163 16 -10 312
-181 365 -211 17 -10 158 -91 315 -182 842 -487 1019 -589 1170 -676 234 -134
722 -416 805 -465 39 -23 90 -52 114 -65 25 -14 72 -41 105 -61 34 -21 68 -40
76 -44 8 -4 30 -17 49 -28 19 -11 136 -79 260 -151 124 -72 249 -146 276 -164
238 -157 412 -417 478 -713 l21 -96 1 -2985 c0 -2854 -1 -2989 -18 -3070 -78
-360 -283 -636 -606 -811 -24 -13 -51 -28 -60 -34 -9 -5 -43 -25 -76 -44 -33
-19 -172 -100 -310 -179 -137 -80 -263 -152 -280 -162 -16 -9 -181 -104 -365
-210 -184 -107 -344 -199 -355 -205 -11 -6 -39 -23 -62 -38 -24 -15 -45 -27
-47 -27 -2 0 -50 -27 -106 -60 -56 -33 -103 -60 -105 -60 -2 0 -79 -44 -172
-98 -167 -99 -196 -115 -433 -251 -69 -39 -132 -75 -140 -80 -19 -13 -349
-202 -375 -217 -11 -6 -39 -22 -62 -37 -24 -15 -44 -27 -46 -27 -2 0 -64 -35
-138 -78 -74 -43 -154 -90 -179 -104 -25 -14 -142 -81 -260 -150 -179 -103
-881 -509 -985 -568 -16 -10 -102 -59 -189 -109 -260 -150 -346 -187 -516
-217 -80 -14 -290 -21 -337 -10 -11 2 -43 8 -70 12 -103 15 -288 86 -403 155
-25 15 -218 127 -430 250 -212 122 -518 298 -680 392 -378 218 -737 425 -775
447 -16 10 -57 33 -90 52 -33 20 -80 47 -105 60 -25 14 -166 96 -314 182 -148
86 -271 156 -273 156 -2 0 -32 18 -67 40 -35 22 -66 40 -71 40 -4 0 -19 8 -33
19 -23 16 -276 163 -412 239 -43 24 -82 47 -355 205 -66 38 -133 77 -150 87
-16 9 -205 118 -420 242 -214 124 -435 251 -490 283 -339 195 -365 214 -480
330 -179 182 -292 418 -321 675 -10 78 -8 5892 1 5965 30 244 147 485 319 660
110 111 148 137 481 330 160 92 364 210 455 263 91 52 179 103 195 112 17 10
84 49 150 87 66 39 140 81 165 95 25 14 185 107 357 206 172 99 334 193 361
209 46 27 376 217 445 257 17 10 181 104 362 209 182 104 393 227 470 271 77
45 147 85 155 89 8 4 24 13 35 19 26 18 81 50 135 80 153 86 509 294 532 309
14 11 29 19 31 19 3 0 188 105 410 234 222 128 429 248 460 265 121 67 290
122 422 137 33 3 61 7 62 8 5 4 157 -2 213 -8z"/>
<path d="M8150 13749 l0 -242 109 -106 c138 -134 419 -409 874 -855 197 -193
419 -410 493 -481 74 -72 134 -133 134 -135 0 -3 -118 -5 -262 -5 l-263 0 -3
-472 -2 -473 349 -2 350 -3 -82 -86 c-94 -98 -398 -417 -441 -463 -16 -17 -61
-65 -101 -106 -63 -65 -75 -84 -92 -140 -16 -58 -17 -72 -6 -125 7 -33 15 -73
18 -90 3 -16 10 -50 15 -75 5 -25 23 -119 40 -210 17 -91 35 -183 40 -205 5
-22 23 -114 40 -205 17 -91 35 -183 40 -205 9 -40 16 -74 26 -130 3 -16 23
-120 44 -230 22 -110 41 -211 44 -225 2 -14 11 -59 20 -100 8 -41 18 -88 21
-105 5 -29 8 -48 20 -105 2 -14 7 -41 10 -60 3 -19 10 -51 15 -70 5 -19 12
-55 15 -80 4 -24 8 -47 10 -50 2 -3 6 -21 9 -41 3 -21 23 -126 45 -235 21
-110 56 -284 76 -389 31 -162 83 -429 126 -648 8 -39 16 -56 24 -53 104 40
532 163 625 180 14 2 46 9 71 15 69 16 334 59 409 66 36 4 72 9 81 10 132 26
726 26 924 1 17 -2 55 -7 86 -10 31 -4 67 -9 80 -11 13 -3 41 -7 64 -10 113
-15 328 -63 520 -115 113 -30 311 -99 458 -159 l97 -40 -1 2032 c-1 2214 2
2098 -58 2282 -74 224 -222 429 -406 562 -59 43 -724 433 -990 581 -44 24 -92
53 -107 63 -14 11 -29 19 -32 19 -4 0 -23 11 -44 23 -20 13 -57 35 -82 49 -25
14 -164 94 -309 177 -144 84 -284 164 -310 178 -45 26 -98 56 -136 80 -43 26
-132 78 -160 93 -16 9 -73 41 -125 72 -52 30 -243 141 -425 246 -181 104 -344
198 -362 208 -18 11 -87 51 -155 90 -68 38 -328 189 -578 334 -512 296 -609
349 -695 378 -56 19 -175 52 -189 52 -3 0 -6 -109 -6 -241z"/>
<path d="M7600 13945 c-96 -32 -165 -67 -360 -180 -194 -113 -444 -256 -499
-287 -20 -11 -40 -24 -46 -28 -5 -4 -30 -19 -55 -32 -25 -14 -112 -64 -193
-112 -82 -47 -151 -86 -153 -86 -2 0 -23 -12 -47 -27 -34 -21 -310 -181 -467
-270 -19 -11 -86 -50 -148 -87 -62 -36 -132 -77 -155 -90 -23 -13 -82 -47
-132 -76 -49 -29 -110 -64 -135 -78 -53 -29 -264 -151 -333 -193 -27 -16 -51
-29 -54 -29 -3 0 -17 -8 -31 -18 -15 -11 -52 -33 -82 -49 -49 -27 -119 -67
-215 -123 -110 -64 -421 -244 -448 -259 -17 -10 -205 -118 -417 -241 -366
-212 -416 -240 -471 -272 -93 -52 -229 -173 -308 -273 -42 -53 -131 -189 -131
-200 0 -3 -11 -28 -24 -57 -28 -61 -71 -218 -82 -298 -4 -30 -8 -943 -9 -2028
0 -1758 1 -1973 15 -1977 8 -2 33 -7 55 -11 108 -16 414 -91 590 -145 216 -66
561 -192 700 -254 28 -13 84 -37 125 -55 207 -89 599 -291 890 -459 197 -114
320 -166 485 -205 134 -32 163 -37 169 -27 3 4 36 165 75 357 39 192 86 428
106 524 21 96 39 186 42 200 2 14 9 45 14 70 6 25 13 56 15 70 3 14 30 144 60
290 31 146 58 276 61 290 2 13 11 56 19 95 9 38 18 81 20 95 3 14 25 121 50
239 24 118 46 226 49 240 9 50 15 76 25 121 6 25 42 198 81 385 38 187 79 382
90 433 11 51 22 103 24 115 2 12 8 47 15 77 6 30 14 66 16 80 3 14 10 45 15
70 6 25 13 55 15 67 2 13 6 33 8 45 29 145 37 181 40 186 2 4 7 24 10 44 3 21
10 57 15 80 6 24 12 54 14 68 5 25 57 274 81 385 7 33 12 110 11 174 l-2 114
-47 43 c-26 23 -109 101 -184 172 -155 147 -173 164 -335 317 l-117 110 342 5
342 5 1 460 c0 253 -1 465 -2 470 -2 7 -94 10 -253 10 -138 0 -250 1 -250 3 0
4 208 208 528 520 70 68 284 278 476 465 191 188 397 389 457 447 l109 106 -2
250 -3 251 -65 -22z"/>
<path d="M7479 11718 c-1 -7 -2 -196 -3 -421 l-1 -407 420 2 420 3 0 415 0
415 -417 3 c-331 2 -418 0 -419 -10z"/>
<path d="M11527 6414 c-1 -1 -74 -4 -162 -8 -88 -4 -173 -8 -190 -10 -16 -3
-52 -7 -80 -10 -112 -12 -156 -18 -285 -42 -601 -109 -1146 -317 -1730 -660
-208 -122 -456 -254 -570 -303 -257 -110 -687 -253 -865 -287 -11 -2 -29 -6
-40 -8 -29 -7 -156 -34 -187 -40 -59 -12 -75 -15 -133 -25 -98 -17 -114 -19
-255 -36 -279 -32 -430 -40 -747 -39 -134 1 -243 0 -243 -2 0 -1 33 -28 73
-58 92 -70 377 -303 451 -369 301 -270 660 -483 1101 -652 241 -93 687 -217
930 -260 115 -20 328 -55 370 -60 28 -4 64 -8 80 -10 17 -2 53 -7 80 -10 28
-3 65 -7 84 -10 19 -2 73 -7 120 -10 47 -4 97 -8 109 -10 116 -19 965 -27
1227 -12 188 11 223 16 263 39 20 11 197 113 392 226 195 112 369 212 385 222
28 16 246 142 325 188 19 11 51 29 70 40 165 91 698 403 746 438 115 81 236
215 316 349 47 79 71 133 102 230 45 141 53 212 55 508 l2 278 -86 39 c-199
92 -518 209 -640 235 -11 2 -36 9 -55 15 -106 32 -414 85 -605 105 -71 7 -404
22 -408 19z"/>
<path d="M2606 5788 c2 -371 7 -422 54 -575 70 -229 244 -460 447 -595 94 -63
171 -108 183 -108 6 0 10 -4 10 -10 0 -5 4 -10 9 -10 9 0 129 -69 611 -348 52
-30 109 -62 125 -72 17 -9 248 -143 515 -297 267 -154 577 -333 690 -398 113
-65 257 -148 320 -185 63 -37 132 -77 154 -89 32 -18 927 -535 1486 -858 214
-124 256 -146 330 -176 220 -87 472 -105 695 -47 141 36 205 64 382 166 54 32
112 65 128 74 17 10 86 50 154 89 117 69 531 308 616 356 22 13 81 47 130 75
50 29 115 66 145 83 30 16 61 34 68 40 7 5 34 22 60 36 115 63 172 96 172 101
0 3 -44 6 -97 6 -118 1 -444 13 -493 19 -19 2 -78 6 -130 10 -52 3 -108 8
-125 10 -30 4 -153 17 -190 20 -29 3 -137 16 -155 20 -8 2 -51 8 -95 15 -831
121 -1598 396 -2158 772 -82 55 -213 153 -227 168 -3 4 -79 68 -170 144 -91
76 -176 148 -190 159 -14 12 -47 40 -75 61 -27 22 -52 42 -55 45 -3 4 -23 20
-45 36 -22 16 -47 35 -55 42 -8 7 -42 32 -75 57 -33 25 -64 49 -70 54 -5 4
-32 23 -60 42 -27 19 -55 40 -61 45 -12 10 -171 120 -203 140 -9 6 -81 54
-161 106 -788 518 -1659 920 -2330 1074 -8 2 -64 15 -125 29 -60 14 -117 26
-126 26 -14 0 -15 -38 -13 -352z"/>
</g>
</svg>
