<svg width="20" height="20" viewBox="0 0 20 20" fill="none" xmlns="http://www.w3.org/2000/svg">
<path d="M3.125 16.25C2.95921 16.25 2.80029 16.1842 2.68303 16.067C2.56584 15.9497 2.5 15.7908 2.5 15.625V4.375C2.5 4.20921 2.56584 4.05029 2.68303 3.93303C2.80029 3.81584 2.95921 3.75 3.125 3.75H6.875V16.25H3.125Z" fill="black" fill-opacity="0.1"/>
<path d="M6.25 3.75V16.25C6.25 16.5952 6.52982 16.875 6.875 16.875C7.22018 16.875 7.5 16.5952 7.5 16.25V3.75C7.5 3.40482 7.22018 3.125 6.875 3.125C6.52982 3.125 6.25 3.40482 6.25 3.75Z" fill="#1C1C1C"/>
<path fill-rule="evenodd" clip-rule="evenodd" d="M1.875 4.375C1.875 4.375 1.875 3.85723 2.24112 3.49112C2.24112 3.49112 2.60723 3.125 3.125 3.125H16.875C16.875 3.125 17.3928 3.125 17.7589 3.49112C17.7589 3.49112 18.125 3.85723 18.125 4.375V15.625C18.125 15.625 18.125 16.1428 17.7589 16.5089C17.7589 16.5089 17.3928 16.875 16.875 16.875H3.125C3.125 16.875 2.60723 16.875 2.24112 16.5089C2.24112 16.5089 1.875 16.1428 1.875 15.625V4.375ZM3.125 4.375V15.625H16.875V4.375H3.125Z" fill="#1C1C1C"/>
<path d="M2.5 6.875H4.375C4.72018 6.875 5 6.59518 5 6.25C5 5.90482 4.72018 5.625 4.375 5.625H2.5C2.15482 5.625 1.875 5.90482 1.875 6.25C1.875 6.59518 2.15482 6.875 2.5 6.875Z" fill="#1C1C1C"/>
<path d="M2.5 9.375H4.375C4.72018 9.375 5 9.09518 5 8.75C5 8.40482 4.72018 8.125 4.375 8.125H2.5C2.15482 8.125 1.875 8.40482 1.875 8.75C1.875 9.09518 2.15482 9.375 2.5 9.375Z" fill="#1C1C1C"/>
<path d="M2.5 11.875H4.375C4.72018 11.875 5 11.5952 5 11.25C5 10.9048 4.72018 10.625 4.375 10.625H2.5C2.15482 10.625 1.875 10.9048 1.875 11.25C1.875 11.5952 2.15482 11.875 2.5 11.875Z" fill="#1C1C1C"/>
</svg>
